<svg xmlns="http://www.w3.org/2000/svg" width="1200" height="760" viewBox="0 0 1200 760">
<defs><marker id="arrow" markerWidth="10" markerHeight="10" refX="8" refY="3" orient="auto"><path d="M0,0 L0,6 L9,3 z" fill="#222"/></marker></defs>
<rect width="1200" height="760" fill="white"/>
<text x="600" y="48" text-anchor="middle" font-family="sans-serif" font-size="28" font-weight="bold">Mushroom-head tracker: first mechanical free-body model</text>
<path d="M245 250 Q600 75 955 250 Q820 365 600 370 Q380 365 245 250 Z" fill="#d9eef7" stroke="#222" stroke-width="4"/>
<line x1="600" y1="365" x2="600" y2="650" stroke="#444" stroke-width="24"/>
<rect x="520" y="645" width="160" height="35" fill="#ddd" stroke="#222" stroke-width="3"/>
<circle cx="600" cy="390" r="30" fill="white" stroke="#222" stroke-width="4"/>
<text x="642" y="400" font-family="sans-serif" font-size="22">rotation bearing / axis</text>
<line x1="600" y1="390" x2="600" y2="205" stroke="#222" stroke-width="3" marker-end="url(#arrow)"/>
<text x="618" y="210" font-family="sans-serif" font-size="22">+z / support axis</text>
<line x1="600" y1="270" x2="600" y2="335" stroke="#222" stroke-width="4" marker-end="url(#arrow)"/>
<text x="620" y="310" font-family="sans-serif" font-size="22">W = mg</text>
<path d="M555 425 A75 75 0 0 1 650 425" fill="none" stroke="#222" stroke-width="4" marker-end="url(#arrow)"/>
<text x="670" y="445" font-family="sans-serif" font-size="22">actuator torque tau</text>
<line x1="1000" y1="180" x2="815" y2="255" stroke="#222" stroke-width="4" marker-end="url(#arrow)"/>
<text x="970" y="145" text-anchor="middle" font-family="sans-serif" font-size="22">wind resultant Fw</text>
<line x1="815" y1="255" x2="815" y2="390" stroke="#777" stroke-width="2" stroke-dasharray="8,8"/>
<text x="835" y="340" font-family="sans-serif" font-size="20">moment arm</text>
<line x1="315" y1="150" x2="440" y2="220" stroke="#e69f00" stroke-width="5" marker-end="url(#arrow)"/>
<text x="260" y="130" font-family="sans-serif" font-size="22">solar direction s</text>
<text x="600" y="720" text-anchor="middle" font-family="sans-serif" font-size="20">Conceptual force/torque bookkeeping only - loads, dimensions and actuator sizing remain unset.</text>
</svg>